<?xml version="1.0" encoding="iso-8859-1"?>
<!-- Uploaded to: SVG Repo, www.svgrepo.com, Generator: SVG Repo Mixer Tools -->
<svg version="1.1" id="Layer_1" xmlns="http://www.w3.org/2000/svg" xmlns:xlink="http://www.w3.org/1999/xlink" 
	 viewBox="0 0 512 512" xml:space="preserve">
<rect x="345.031" y="120.28" style="fill:#36D9D9;" width="35.611" height="83.091"/>
<rect x="362.836" y="120.28" style="fill:#43BFBF;" width="17.805" height="83.091"/>
<rect x="238.199" y="120.28" style="fill:#36D9D9;" width="35.611" height="83.091"/>
<rect x="256.005" y="120.28" style="fill:#43BFBF;" width="17.805" height="83.091"/>
<rect x="131.367" y="120.28" style="fill:#36D9D9;" width="35.611" height="83.091"/>
<rect x="149.173" y="120.28" style="fill:#43BFBF;" width="17.805" height="83.091"/>
<path style="fill:#F26D76;" d="M309.416,11.908v66.829c0,29.438-23.978,53.416-53.416,53.416c-1.781,0-3.561-0.119-5.342-0.237
	c-27.777-2.73-48.074-27.658-48.074-55.553V11.908c0-9.496,10.564-15.194,18.399-9.852L256,25.321l35.017-23.266
	C298.851-3.286,309.416,2.412,309.416,11.908z"/>
<path style="fill:#E65C64;" d="M309.416,11.908v66.829c0,29.438-23.978,53.416-53.416,53.416V25.321l35.017-23.266
	C298.851-3.286,309.416,2.412,309.416,11.908z"/>
<path style="fill:#F26D76;" d="M416.248,11.908v66.829c0,29.438-23.978,53.416-53.416,53.416c-1.781,0-3.561-0.119-5.342-0.237
	c-27.777-2.73-48.074-27.658-48.074-55.553V11.908c0-9.496,10.564-15.194,18.399-9.852l35.017,23.266l35.017-23.266
	C405.683-3.286,416.248,2.412,416.248,11.908z"/>
<path style="fill:#E65C64;" d="M416.248,11.908v66.829c0,29.438-23.978,53.416-53.416,53.416V25.321l35.017-23.266
	C405.683-3.286,416.248,2.412,416.248,11.908z"/>
<path style="fill:#F26D76;" d="M202.584,11.908v66.829c0,29.438-23.978,53.416-53.416,53.416c-1.781,0-3.561-0.119-5.342-0.237
	c-27.777-2.73-48.074-27.658-48.074-55.553V11.908c0-9.496,10.564-15.194,18.399-9.852l35.017,23.266l35.017-23.266
	C192.019-3.286,202.584,2.412,202.584,11.908z"/>
<path style="fill:#E65C64;" d="M202.584,11.908v66.829c0,29.438-23.978,53.416-53.416,53.416V25.321l35.017-23.266
	C192.019-3.286,202.584,2.412,202.584,11.908z"/>
<path style="fill:#36D9D9;" d="M350.045,488.566l-39.67-83.399h-108.75l-39.67,83.399c-1.808,5.425-0.905,11.395,2.446,16.038
	c3.351,4.642,8.717,7.395,14.444,7.395h154.313c5.726,0,11.094-2.753,14.444-7.395S351.854,493.991,350.045,488.566z"/>
<path style="fill:#43BFBF;" d="M310.375,405.168H256V512h77.156c5.726,0,11.094-2.753,14.444-7.395
	c3.35-4.642,4.254-10.612,2.446-16.038L310.375,405.168z"/>
<path style="fill:#D7EBFF;" d="M357.882,305.458H153.987L128.17,279.64c-19.776-33.783-35.789-61.143-35.812-61.167
	c-3.3-5.496-3.383-12.357-0.237-17.936c3.169-5.579,9.093-9.033,15.502-9.033h296.755c6.41,0,12.333,3.454,15.503,9.033
	c3.146,5.579,3.062,12.44-0.237,17.936l-35.599,60.823L357.882,305.458z"/>
<path style="fill:#BDDEFF;" d="M256,305.458h101.882l26.162-26.162l35.599-60.823c3.3-5.496,3.383-12.357,0.237-17.936
	c-3.169-5.579-9.093-9.033-15.503-9.033H256L256,305.458L256,305.458z"/>
<path style="fill:#36D9D9;" d="M351.508,250.855c-21.651-10.826-45.831-6.279-61.844,9.734l-20.892,20.892
	c-3.419,3.419-8.119,5.009-12.76,4.95c-4.641-0.059-9.223-1.769-12.404-4.95l-20.892-20.892
	c-19.242-19.242-50.401-21.533-72.29-2.611c-3.478,2.706,1.804-2.398-22.257,21.663c31.86,54.449,73.465,125.527,73.465,125.527
	h108.731l73.678-125.872C364.019,259.651,362.416,256.565,351.508,250.855z"/>
<path style="fill:#43BFBF;" d="M256,405.168h54.366l73.678-125.872c-20.025-19.645-21.628-22.731-32.536-28.441
	c-21.651-10.826-45.831-6.279-61.844,9.734l-20.892,20.892c-3.419,3.419-8.119,5.009-12.76,4.95c-0.004,0-0.008,0-0.012,0V405.168z"
	/>
<polygon style="fill:#D7EBFF;" points="187.734,381.427 195.979,417.038 316.02,417.038 324.254,381.427 "/>
<polygon style="fill:#BDDEFF;" points="256,417.038 316.02,417.038 324.254,381.427 256,381.427 "/>
</svg>